<svg width="43" height="50" viewBox="0 0 43 50" fill="none" xmlns="http://www.w3.org/2000/svg">
<path d="M20.1169 1.48879C17.8242 2.90147 15.3578 4.4531 14.1536 5.22892C13.5167 5.64577 11.664 6.82687 10.0429 7.85743C8.4218 8.88799 5.5617 10.7175 3.69743 11.9334L0.316257 14.1334V19.1936C0.316257 21.9842 0.350995 24.4275 0.385733 24.6243C0.432051 24.8212 0.536265 24.9833 0.61732 24.9833C0.756272 24.9833 0.779431 24.2075 0.779431 20.3631C0.779431 16.6462 0.814169 15.7198 0.929962 15.6156C1.0226 15.5461 1.12681 15.523 1.16155 15.5693C1.20787 15.604 1.2426 17.3872 1.2426 19.5294C1.2426 23.8601 1.31208 24.9833 1.54367 24.9833C1.6363 24.9833 1.71736 24.9717 1.72894 24.9485C1.74052 24.937 1.77525 22.9685 1.80999 20.5831C1.87947 16.5767 1.89105 16.2409 2.07632 16.2061C2.27317 16.1714 2.28475 16.403 2.28475 19.8652C2.28475 23.9527 2.34264 24.9833 2.58581 24.9833C2.67844 24.9833 2.7595 24.9717 2.77108 24.9485C2.78266 24.937 2.8174 23.1306 2.85213 20.9305C2.92161 17.2483 2.93319 16.9356 3.13004 16.9009C3.31531 16.8662 3.32689 17.1093 3.32689 20.7916C3.32689 22.9569 3.36163 24.8096 3.39636 24.9138C3.4311 25.018 3.53532 25.0991 3.61637 25.0991C3.83638 25.0991 3.90585 24.0106 3.90585 20.6989C3.90585 18.1746 3.92901 17.6999 4.07954 17.6536C4.17218 17.6072 4.27639 17.6304 4.32271 17.6999C4.35745 17.7693 4.38061 19.1473 4.38061 20.7684C4.35745 23.9759 4.42693 25.0991 4.65851 25.0991C4.87852 25.0991 4.948 24.2422 4.948 21.2779C4.948 18.9504 4.97115 18.4988 5.12169 18.3831C5.2259 18.302 5.33011 18.2673 5.37643 18.3136C5.42275 18.3483 5.43433 19.4947 5.42275 20.861C5.38801 23.6285 5.48065 24.9833 5.70065 24.9833C5.80487 24.9833 5.86276 24.2306 5.92066 22.0653C5.97856 19.7378 6.03645 19.101 6.16383 18.9736C6.25646 18.881 6.37226 18.8346 6.40699 18.881C6.45331 18.9273 6.47647 20.3168 6.46489 21.9727C6.44173 24.9485 6.44173 24.9833 6.67332 24.9833C6.90491 24.9833 6.91648 24.9254 6.92806 22.7485C6.92806 19.7494 7.03228 19.0315 7.39124 19.3905C7.48387 19.4831 7.53019 20.3631 7.54177 22.1927C7.55335 24.138 7.58809 24.8906 7.6923 24.9949C7.77336 25.0759 7.87757 25.0991 7.92389 25.0528C7.97021 25.0064 8.0281 23.8138 8.05126 22.4011C8.07442 20.9884 8.10916 19.761 8.1439 19.6684C8.17863 19.5526 8.22495 19.541 8.35232 19.6452C8.4797 19.761 8.52601 20.3284 8.56075 22.3779C8.58391 23.8022 8.63023 25.0064 8.68812 25.0528C8.93129 25.3075 9.01235 24.7401 9.05866 22.4358C9.0934 20.0389 9.17446 19.5526 9.46394 19.8421C9.53342 19.9115 9.59131 21 9.60289 22.459C9.62605 23.8369 9.67237 25.0064 9.73027 25.0528C9.95027 25.2843 10.0429 24.7401 10.124 22.4937C10.205 20.4558 10.2398 20.0621 10.3903 20.0621C10.5408 20.0621 10.564 20.4326 10.5987 22.5748C10.6219 24.6822 10.6566 25.0875 10.8071 25.1454C10.8998 25.1801 11.004 25.1454 11.0272 25.0643C11.0503 24.9949 11.085 23.999 11.1082 22.8758C11.1314 21.5095 11.1893 20.78 11.2819 20.6873C11.6061 20.3631 11.664 20.7337 11.664 22.9106C11.664 24.7864 11.6872 25.1222 11.8377 25.1801C11.9419 25.2149 12.0461 25.2149 12.0693 25.1917C12.104 25.157 12.1388 24.2538 12.1619 23.1769C12.1851 22.0884 12.243 21.1389 12.2893 21.0695C12.3935 20.8958 12.7062 20.8842 12.7062 21.0463C12.7062 21.1042 12.7525 21.1621 12.8104 21.1621C12.9956 21.1621 12.8104 20.6989 12.5788 20.5715C12.3704 20.4673 12.3125 20.5137 12.3472 20.7221C12.3472 20.78 12.2546 20.8147 12.1272 20.8147C11.9882 20.8147 11.8261 20.6758 11.7103 20.4558C11.5366 20.12 11.4556 20.0852 11.0272 20.2473C10.9693 20.2705 10.8998 20.2589 10.8882 20.201C10.865 20.1547 10.7724 19.9578 10.6798 19.7726C10.5061 19.4368 10.5061 19.4136 10.8187 19.1241C10.9924 18.9504 11.3398 18.6841 11.5945 18.5336L12.0461 18.2441L13.563 18.9041C14.3967 19.2631 15.4505 19.7494 15.8905 19.981L16.701 20.4094L16.8168 22.6674C16.921 24.6243 16.9558 24.9254 17.1295 24.9601C17.3147 24.9949 17.3958 24.4969 17.4884 22.7253C17.5 22.4011 17.5695 22.1463 17.6274 22.1579C17.7779 22.1695 17.8937 23.038 17.94 24.4622C17.9748 25.5159 17.9979 25.6201 18.2063 25.6549C18.4264 25.6896 18.4379 25.6201 18.4379 24.0106C18.4379 22.8179 18.4843 22.2853 18.5885 22.1811C18.878 21.8916 18.959 22.2853 18.9706 24.0801C18.9822 25.898 19.0169 26.0254 19.399 26.0254C19.4453 26.0254 19.4801 25.3538 19.4801 24.5201C19.4801 23.478 19.5264 22.9801 19.6306 22.8758C19.9085 22.5979 20.0011 22.9801 20.0127 24.578C20.0243 26.0833 20.0938 26.4886 20.3601 26.4886C20.418 26.4886 20.4643 25.7707 20.4643 24.8906C20.4643 23.3159 20.557 22.8295 20.8117 23.0843C20.8928 23.1653 20.9507 23.9875 20.9738 25.2264C20.997 26.3381 21.0549 28.3645 21.1012 29.7308L21.1822 32.2204L20.2212 32.7646C19.179 33.3436 18.7737 33.5057 18.4958 33.4478C18.4032 33.4246 18.3569 33.4594 18.4148 33.5057C18.5306 33.6331 17.8127 33.9225 17.639 33.8067C17.4768 33.7025 17.4653 33.2973 17.6274 33.1699C17.6969 33.112 17.6737 33.0888 17.5695 33.1236C17.4768 33.1467 17.3842 33.2278 17.3842 33.2973C17.3726 33.3783 17.3611 33.4825 17.3495 33.552C17.3263 33.7257 16.9095 33.691 16.7126 33.4825C16.6084 33.3899 16.481 33.332 16.4231 33.3667C16.3652 33.413 16.2494 33.3667 16.1568 33.2857C16.0757 33.193 15.9484 33.1467 15.8905 33.1699C15.821 33.193 15.5084 33.0425 15.1957 32.8341C14.8715 32.6372 14.2809 32.2899 13.8641 32.0698C13.0767 31.653 12.683 31.3172 12.5556 30.9814C12.4514 30.6803 12.5788 30.4256 12.7872 30.5066C12.9146 30.5529 12.9493 30.5298 12.8914 30.4487C12.8451 30.3561 12.8914 30.3098 13.0188 30.3098C13.1809 30.3098 13.1925 30.2866 13.0651 30.2056C12.9841 30.1477 12.9609 30.0782 13.0188 30.0435C13.0767 30.0087 13.1925 30.0203 13.2851 30.0782C13.5167 30.2171 13.7483 30.0898 13.6557 29.8698C13.5978 29.6961 13.6093 29.6961 13.783 29.835C13.8988 29.9277 14.0146 29.9624 14.0609 29.9161C14.0957 29.8813 14.0725 29.8466 13.9915 29.8466C13.9104 29.8466 13.8873 29.7887 13.922 29.7308C14.0494 29.5224 14.3273 29.6034 14.2578 29.8119C14.2231 29.9277 14.2694 29.8929 14.362 29.7308C14.4662 29.5687 14.5704 29.4645 14.6052 29.4992C14.6515 29.534 14.7789 29.3834 14.9062 29.175C15.0336 28.9782 15.2189 28.8045 15.3231 28.8045C15.4968 28.8045 16.1915 28.1908 16.1452 28.0865C16.1336 28.0634 16.18 28.0981 16.2379 28.1676C16.3073 28.2255 16.4115 28.295 16.4926 28.3066C16.6663 28.3413 17.1295 27.7739 17.0368 27.635C17.0021 27.5771 17.06 27.5307 17.1526 27.5307C17.2568 27.5307 17.3379 27.5771 17.3379 27.6234C17.3379 27.6697 17.4537 27.716 17.6042 27.7276C17.8242 27.7507 17.8358 27.7276 17.6737 27.6118C17.5 27.4844 17.4537 27.4034 17.4537 27.2297C17.4537 27.1834 17.3842 27.2181 17.3032 27.2876C17.2105 27.357 17.1179 27.3802 17.0716 27.3455C17.0368 27.3107 16.9558 27.3918 16.8747 27.5192C16.6895 27.8781 16.4231 27.8202 16.2379 27.3802C16.0873 27.0097 16.0063 27.056 15.9252 27.5771C15.9021 27.6928 15.7978 27.855 15.6821 27.9244C15.3462 28.1329 15.2305 27.8086 15.2999 26.836C15.3694 25.7012 15.2999 25.3307 14.9873 25.3307C14.7557 25.3307 14.7557 25.377 14.8368 26.9402C14.9178 28.6308 14.8483 28.9087 14.3852 28.735C14.2231 28.6655 14.1999 28.5034 14.2115 27.716C14.2578 25.6896 14.2346 25.4465 13.9799 25.4465C13.7599 25.4465 13.7483 25.5275 13.7483 27.357C13.7483 29.0129 13.7251 29.2792 13.563 29.3487C13.2388 29.4761 13.1693 29.1287 13.1693 27.2876C13.1693 25.8054 13.1346 25.458 12.9956 25.4117C12.7293 25.3075 12.6598 25.9907 12.7525 27.8781C12.8104 29.2561 12.7988 29.6034 12.6598 29.7192C12.544 29.8119 12.4746 29.8119 12.3819 29.6961C12.2546 29.5455 12.1619 28.1444 12.1388 26.2802C12.1272 25.5275 12.104 25.4465 11.8956 25.4465C11.6756 25.4465 11.664 25.5275 11.664 27.8086C11.664 29.6961 11.6293 30.194 11.5019 30.2982C11.3745 30.4024 11.3166 30.4024 11.2356 30.2866C11.1893 30.2056 11.1198 29.0708 11.085 27.7623C11.0387 25.7591 11.004 25.3886 10.8535 25.3886C10.7029 25.3886 10.6798 25.7591 10.645 27.936C10.6219 30.3445 10.5524 30.8656 10.2861 30.5877C10.2282 30.5298 10.1355 29.3603 10.1008 27.9939C10.0661 26.6275 10.0082 25.4928 9.98501 25.458C9.96185 25.4349 9.85764 25.4465 9.75342 25.4812C9.60289 25.5507 9.57973 25.9328 9.57973 28.2718C9.57973 30.5645 9.55658 30.993 9.40604 31.0509C9.13972 31.1435 9.00077 30.7498 9.08182 30.1014C9.11656 29.7887 9.10498 28.6076 9.05866 27.4844C8.97761 25.597 8.95445 25.4465 8.7576 25.4465C8.54917 25.4465 8.53759 25.597 8.51443 28.1329C8.4797 30.4372 8.45654 30.8309 8.30601 30.8309C8.15548 30.8309 8.12074 30.4487 8.06284 28.3992C7.97021 25.2728 7.98178 25.4465 7.78494 25.4465C7.49545 25.4465 7.46071 25.9559 7.53019 28.596C7.57651 30.773 7.56493 31.1435 7.4144 31.2014C7.32176 31.2361 7.19439 31.213 7.13649 31.1551C7.06702 31.0856 6.99754 29.9277 6.98596 28.3529C6.9628 26.697 6.89333 25.6086 6.82385 25.5391C6.49963 25.2149 6.45331 25.6201 6.45331 28.6308C6.45331 31.2014 6.43015 31.6877 6.27962 31.734C6.18699 31.7804 6.08277 31.7688 6.05961 31.7109C6.02488 31.6646 5.96698 30.275 5.93224 28.6308C5.87434 25.9212 5.80487 25.2496 5.57328 25.4696C5.53854 25.5159 5.48065 27.0212 5.45749 28.8276C5.42275 30.6456 5.35327 32.1509 5.2838 32.2088C5.01747 32.4867 4.95958 31.9309 4.92484 28.8971C4.90168 26.5465 4.85536 25.6549 4.75115 25.5507C4.67009 25.4696 4.56588 25.4465 4.51956 25.4928C4.46166 25.5391 4.41535 27.2181 4.39219 29.2213C4.35745 32.5793 4.34587 32.8688 4.1606 32.8341C3.98691 32.7993 3.96375 32.4635 3.90585 29.1866C3.87112 27.2065 3.81322 25.5391 3.7669 25.5044C3.72058 25.458 3.60479 25.4465 3.50058 25.4812C3.35005 25.5507 3.32689 26.0602 3.32689 29.5571C3.32689 33.4709 3.32689 33.552 3.0953 33.552C2.86371 33.552 2.86371 33.4709 2.86371 29.6266C2.86371 26.257 2.84055 25.6896 2.69002 25.5622C2.58581 25.4812 2.47002 25.4465 2.4237 25.4928C2.37738 25.5391 2.31948 27.5076 2.29633 29.8582C2.26159 33.9225 2.25001 34.131 2.04158 34.131C1.84473 34.131 1.83315 33.9341 1.79841 29.9045C1.77525 26.7549 1.72894 25.6549 1.62472 25.5507C1.54367 25.4696 1.43945 25.4465 1.39314 25.4928C1.33524 25.5391 1.27734 27.6234 1.2426 30.1129C1.19629 34.0499 1.16155 34.652 1.01102 34.652C0.860486 34.652 0.837328 34.0615 0.80259 30.1014C0.779431 25.6549 0.767852 25.5622 0.547844 25.5622C0.316257 25.5622 0.316257 25.6549 0.293098 30.5414C0.281519 33.2741 0.26994 35.6247 0.26994 35.7405C0.25836 35.9952 0.177305 35.9373 7.03228 40.3607C13.4588 44.5061 13.6209 44.5987 17.7316 47.1577C21.217 49.3231 21.4486 49.4389 21.6917 49.2883C21.8307 49.1957 22.7223 48.6399 23.6718 48.0378C24.6097 47.4356 26.3235 46.3703 27.4698 45.6524C28.6162 44.9461 30.2373 43.9271 31.0594 43.3944C31.8931 42.8618 34.209 41.3912 36.2122 40.1175C38.2155 38.8553 40.3345 37.5121 40.9019 37.1416C41.4808 36.7826 42.1177 36.3889 42.3145 36.2616L42.6967 36.0531V32.452C42.6967 27.7623 42.5925 25.5622 42.384 25.5622C42.303 25.5622 42.2219 25.5738 42.2103 25.5854C42.1988 25.6086 42.1524 27.6465 42.1177 30.1361C42.0714 34.0499 42.0366 34.652 41.8861 34.652C41.6893 34.652 41.6893 34.6405 41.6661 29.0013C41.6545 25.7244 41.6429 25.5622 41.4345 25.5622C41.2377 25.5622 41.2145 25.7475 41.145 28.8855C41.0987 30.7266 41.0756 32.6488 41.0871 33.1699C41.1219 34.1773 41.0756 34.3162 40.7861 34.212C40.6355 34.1425 40.6124 33.6099 40.6124 29.8466C40.6124 26.0833 40.5892 25.5507 40.4387 25.4812C40.3345 25.4465 40.2303 25.4465 40.1955 25.4812C40.1608 25.5044 40.1029 27.357 40.0566 29.5687C39.9871 33.0541 39.9524 33.6099 39.8018 33.6099C39.6513 33.6099 39.6281 33.0657 39.5934 29.5224C39.5702 25.6433 39.5587 25.4465 39.3502 25.4465C39.1534 25.4465 39.1302 25.6549 39.0376 29.1171C38.945 32.2667 38.9102 32.7993 38.7597 32.7993C38.6092 32.7993 38.5744 32.2899 38.5281 29.1518C38.4818 25.9096 38.447 25.5044 38.2849 25.4696C38.1112 25.4349 38.0881 25.7823 38.007 28.8045C37.9607 30.6456 37.8797 32.1625 37.8218 32.1625C37.7639 32.1625 37.6828 32.1625 37.6365 32.1625C37.5786 32.1625 37.5207 30.6687 37.486 28.8392C37.4512 26.5233 37.3933 25.5159 37.3007 25.4812C37.0807 25.4117 37.0344 26.0486 37.0112 28.8392C36.988 30.8309 36.9533 31.5025 36.8375 31.5951C36.4438 31.9193 36.4091 31.6067 36.5017 28.735C36.5828 25.8633 36.548 25.4465 36.2701 25.4465C36.0154 25.4465 35.9806 25.7591 35.9575 28.4918C35.9227 30.5761 35.888 31.0277 35.7491 31.1203C35.6448 31.1782 35.5291 31.1782 35.4712 31.1203C35.4133 31.0624 35.3785 29.7656 35.3901 28.2371C35.4133 25.7823 35.3901 25.4465 35.2396 25.4465C35.1354 25.4465 35.0427 25.458 35.0311 25.4696C35.0196 25.4928 34.9732 26.6739 34.9385 28.1097C34.8806 30.6224 34.869 30.7151 34.649 30.7151C34.4174 30.7151 34.4174 30.6572 34.4638 28.0981C34.4869 26.1528 34.4638 25.458 34.3595 25.3886C34.2901 25.3422 34.1743 25.3538 34.1279 25.4001C34.0701 25.458 33.989 26.7318 33.9311 28.2255C33.85 30.5298 33.8153 30.9466 33.6648 30.9466C33.5142 30.9466 33.4795 30.5414 33.4332 28.1792C33.3869 26.1065 33.3406 25.4001 33.2363 25.3538C33.1553 25.3307 33.0626 25.377 33.0395 25.4696C32.9816 25.6433 32.8658 28.2371 32.8542 29.534C32.8542 30.2403 32.8195 30.4487 32.6805 30.5066C32.5763 30.5414 32.4721 30.5414 32.4374 30.5066C32.4026 30.4719 32.3563 29.3603 32.3563 28.0287C32.3332 25.7707 32.2753 25.2496 32.0552 25.377C32.0089 25.4117 31.9279 26.4886 31.8816 27.7855C31.8352 29.0708 31.7773 30.1477 31.7542 30.1824C31.731 30.2056 31.6268 30.194 31.5226 30.1593C31.3721 30.0898 31.3489 29.754 31.3489 27.7739C31.3489 25.5391 31.291 25.1107 30.9899 25.4117C30.9436 25.458 30.8626 26.4191 30.8278 27.5307C30.7931 28.6424 30.712 29.6034 30.6541 29.6613C30.3878 29.9277 30.3068 29.4529 30.2836 27.4728C30.2489 25.597 30.2257 25.3886 30.052 25.3538C29.8552 25.3191 29.8436 25.4696 29.8436 27.2413C29.8436 28.8624 29.8204 29.175 29.6699 29.2329C29.5657 29.2676 29.4499 29.2561 29.4036 29.2213C29.3688 29.175 29.3457 28.3181 29.3688 27.3107C29.392 26.037 29.3573 25.4465 29.2646 25.3886C29.1836 25.3422 29.172 25.2149 29.2299 25.0643C29.2762 24.9254 29.3225 24.0801 29.3225 23.1885C29.3225 21.6484 29.3341 21.5674 29.5541 21.5674C29.7741 21.5674 29.7857 21.66 29.8204 23.3853C29.832 24.3927 29.8899 25.2149 29.9362 25.2149C30.2489 25.2149 30.3068 24.8559 30.3068 22.9222C30.3068 21.0695 30.3183 20.9189 30.5152 20.9537C30.6889 20.9884 30.7236 21.2316 30.8163 23.0495C30.8857 24.578 30.9552 25.0991 31.0594 25.0991C31.3142 25.0991 31.3489 24.798 31.3489 22.7253C31.3489 20.6989 31.4068 20.4094 31.7542 20.6989C31.8931 20.8147 31.9279 21.2432 31.9279 22.9106C31.9279 24.2422 31.9742 24.9949 32.0552 25.0412C32.3332 25.2264 32.3332 25.238 32.391 20.4905C32.391 20.3168 32.4605 20.2357 32.6226 20.2357C32.889 20.2357 32.889 20.2242 32.8542 21.88C32.8311 23.5359 32.97 25.0991 33.1437 25.0991C33.3985 25.0991 33.4332 24.7864 33.4332 22.4242C33.4332 20.4094 33.4563 20.1084 33.6185 20.0389C33.7227 20.0042 33.8385 20.0273 33.8848 20.1084C33.9311 20.1894 33.9774 21.2895 33.989 22.5632C34.0006 23.8369 34.0353 24.937 34.0816 24.9949C34.1279 25.0643 34.209 25.0643 34.3132 24.9717C34.4406 24.8675 34.4753 24.3464 34.4753 22.2969C34.4753 19.9347 34.4869 19.761 34.6838 19.7957C34.8574 19.8305 34.8922 20.0852 34.9501 22.4358C34.9848 23.8717 35.0311 25.0528 35.0427 25.0643C35.0427 25.0875 35.1354 25.0991 35.228 25.0991C35.3785 25.0991 35.4017 24.717 35.4017 22.3895C35.4017 20.8958 35.4364 19.5989 35.4712 19.4947C35.5059 19.3905 35.6101 19.3094 35.6912 19.3094C35.9459 19.3094 35.9806 19.6105 35.9806 22.1232C35.9806 24.6706 36.027 25.0991 36.2701 25.0991C36.4901 25.0991 36.5365 24.2885 36.467 21.5905C36.4207 19.3673 36.4322 19.1126 36.6059 18.9736C36.768 18.8346 36.8259 18.8346 36.907 18.962C36.9533 19.0431 36.9996 20.1084 37.0112 21.3242C37.0228 23.9411 37.1154 25.1222 37.3007 25.0643C37.3933 25.0296 37.4512 23.9759 37.486 21.6137C37.5323 18.6957 37.567 18.2094 37.7175 18.2094C37.8681 18.2094 37.9028 18.6957 37.9839 21.5674C38.0302 23.4085 38.1112 24.9601 38.1691 25.018C38.4818 25.3307 38.5281 24.8791 38.5281 21.3358C38.5281 17.8272 38.5744 17.3293 38.8755 17.642C38.9218 17.6999 39.0029 19.3557 39.0492 21.3358C39.0955 23.3043 39.1534 24.9601 39.1765 25.0064C39.2113 25.0643 39.3155 25.0991 39.3966 25.0991C39.5471 25.0991 39.5702 24.4506 39.5934 20.9537C39.6281 17.3757 39.6513 16.8198 39.8018 16.8198C39.9524 16.8198 39.9871 17.3641 40.045 20.7568C40.0797 22.9222 40.1261 24.7633 40.1376 24.8327C40.1376 24.9138 40.2534 24.9833 40.3808 24.9833C40.6124 24.9833 40.6124 24.9022 40.6124 20.5947C40.6124 16.3219 40.6471 15.824 40.9598 16.1367C41.0177 16.1946 41.0871 18.163 41.1103 20.5137C41.1682 24.717 41.2261 25.3538 41.5387 24.8675C41.6429 24.717 41.7472 17.6536 41.6661 16.484C41.6314 15.9051 41.7472 15.4651 41.9208 15.523C42.0251 15.5577 42.0714 16.7156 42.1177 20.2126C42.1524 22.76 42.2103 24.8906 42.2682 24.937C42.5577 25.238 42.6156 24.578 42.6735 19.4947L42.7314 14.2261L41.8398 13.6703C41.3535 13.3692 39.4081 12.1186 37.5091 10.8912C35.6217 9.67538 33.6069 8.3785 33.0279 8.00796C32.4605 7.649 31.1289 6.79213 30.0752 6.10894C28.3383 4.98575 27.3772 4.37205 22.9423 1.55827C22.1665 1.07193 21.518 0.666656 21.4949 0.666656C21.4717 0.666656 20.8464 1.03719 20.1169 1.48879ZM21.9002 3.51517C21.9349 3.61938 21.9696 4.71943 21.9696 5.96999C21.9696 8.64482 22.0275 9.11958 22.3286 9.11958C22.5254 9.11958 22.5486 8.98062 22.5718 7.46373C22.6065 6.09737 22.6297 5.81946 22.7802 5.81946C22.9307 5.81946 22.9539 6.09737 22.9886 7.52163C23.0118 9.13115 23.0349 9.23537 23.2434 9.23537C23.4402 9.23537 23.475 9.13115 23.4981 8.15849C23.5328 7.18583 23.556 7.09319 23.7644 7.09319C23.9844 7.09319 23.996 7.15108 23.9497 8.03112C23.9034 9.13115 23.9844 9.46696 24.2855 9.46696C24.4824 9.46696 24.5055 9.36274 24.5403 8.67956C24.5634 8.07743 24.6097 7.90374 24.7487 7.90374C24.8876 7.90374 24.9339 8.08901 24.9571 8.73746C24.9918 9.47853 25.015 9.58275 25.2119 9.58275C25.3855 9.58275 25.4319 9.49012 25.4666 9.14273C25.4898 8.85325 25.5592 8.7143 25.675 8.7143C25.8024 8.7143 25.8603 8.88799 25.9066 9.35116C25.9529 9.82592 26.0108 9.99961 26.1614 10.0228C26.2887 10.0459 26.3698 9.95329 26.4277 9.71012C26.4856 9.45538 26.5782 9.35116 26.7287 9.35116C26.9024 9.35116 26.9488 9.43222 26.9488 9.80276C26.9488 10.1501 26.9951 10.2659 27.1572 10.3007C27.2614 10.3238 27.4119 10.2659 27.4814 10.1733C27.5972 10.0228 27.6435 10.0228 27.8056 10.1501C27.9098 10.2312 27.9909 10.428 27.9909 10.5902C27.9909 10.8333 28.0372 10.8681 28.3151 10.8333C28.9057 10.7638 31.1289 12.4544 32.6342 14.1103C33.8153 15.4187 34.4753 16.3567 35.1238 17.642L35.6796 18.7304L35.4133 18.962C35.2627 19.0894 35.089 19.1589 35.0311 19.1241C34.9732 19.0894 34.7996 18.7768 34.649 18.4294C34.4985 18.0936 34.209 17.5609 34.0006 17.2599C33.3985 16.3798 31.731 14.724 31.1984 14.4577C30.9321 14.3303 30.4573 13.9945 30.1331 13.6934C28.9057 12.5586 27.4582 11.667 25.6287 10.9144C25.0613 10.6828 24.4939 10.428 24.3781 10.3354C24.2508 10.2544 24.0539 10.208 23.9381 10.2428C23.8223 10.2775 23.6255 10.1965 23.475 10.0459C23.2665 9.83749 23.197 9.82592 23.0581 9.94171C22.9191 10.0575 22.8265 10.0575 22.6528 9.95329C22.5139 9.86065 22.2707 9.83749 22.0391 9.87223C21.7728 9.93013 21.6223 9.89539 21.5065 9.76802C21.3675 9.59433 21.3444 9.59433 21.1359 9.7796C20.9507 9.94171 20.858 9.95329 20.5685 9.84908C20.2791 9.73328 20.2096 9.74486 20.1517 9.89539C20.1054 10.0228 19.978 10.0575 19.6653 9.99961C19.318 9.95329 19.2138 9.97645 19.0864 10.1733C18.9706 10.3701 18.8664 10.4049 18.5885 10.347C18.3106 10.2891 18.1948 10.3354 17.9516 10.6249C17.8011 10.8217 17.5926 10.9723 17.5 10.9723C17.2916 10.9723 15.5315 11.806 14.6399 12.3271C14.2694 12.5471 13.5862 13.0913 13.1462 13.5197C12.6946 13.9597 12.1851 14.3419 12.023 14.3882C11.1429 14.5966 9.56816 16.2525 8.51443 18.0588C7.83125 19.2399 7.78494 19.2747 7.55335 19.0315C7.36808 18.8578 7.36808 18.8115 7.55335 18.3483C7.86599 17.5609 8.72286 16.044 9.29025 15.2682C10.5408 13.5776 13.702 10.8217 14.4431 10.8102C14.6399 10.7986 14.7441 10.7175 14.7904 10.5207C14.8715 10.1501 15.1378 10.0691 15.2189 10.3817C15.2536 10.5207 15.3462 10.6249 15.4389 10.6249C15.5778 10.6249 15.6473 10.4628 15.7399 9.89539C15.7863 9.59433 15.9831 9.59433 16.1221 9.89539C16.18 10.0459 16.3305 10.1617 16.4347 10.1617C16.6084 10.1617 16.6431 10.0575 16.6431 9.57117C16.6431 9.07326 16.6779 8.9922 16.8516 9.02694C16.9789 9.0501 17.06 9.18905 17.0832 9.4438C17.1179 9.76802 17.1642 9.82592 17.3726 9.79118C17.6042 9.75644 17.6274 9.69854 17.5926 9.09642C17.5463 8.33218 17.6274 8.11217 17.8705 8.3206C17.9632 8.40166 18.0327 8.66798 18.0327 8.95747C18.0327 9.43222 18.0558 9.46696 18.3337 9.46696H18.6464L18.5769 8.56377C18.4958 7.57952 18.5885 7.24372 18.8895 7.48689C19.0285 7.60268 19.0748 7.85743 19.0748 8.50587C19.0748 9.328 19.0864 9.36274 19.3411 9.328C19.5959 9.29327 19.5959 9.27011 19.5496 7.95006C19.5148 6.56054 19.5959 6.28263 19.9433 6.57212C20.0822 6.68791 20.1169 7.01213 20.1169 7.9848C20.1169 9.13115 20.1401 9.24695 20.3254 9.21221C20.4991 9.17747 20.5222 8.9922 20.5222 7.38267C20.5222 5.66893 20.5338 5.58788 20.7538 5.58788C20.9738 5.58788 20.9854 5.68051 21.0201 7.34793C21.0433 9.07326 21.0549 9.11958 21.298 9.11958H21.5412L21.4717 6.29422C21.437 4.74258 21.437 3.43412 21.4717 3.39938C21.6107 3.272 21.8307 3.3299 21.9002 3.51517ZM19.1327 11.9449C19.3295 11.9913 19.8622 12.1649 20.3138 12.3386L21.1591 12.6513V14.8514V17.0514L20.4296 17.5841C19.6885 18.1399 18.5537 18.8925 17.639 19.4599L17.1179 19.7842L15.4041 18.9389C14.4662 18.4641 13.3893 17.9662 13.0304 17.8157C12.6135 17.642 12.3588 17.4683 12.3588 17.3525C12.3588 17.2483 12.4977 16.5535 12.6714 15.7893L12.9956 14.4229L13.6904 13.8671C14.8831 12.9292 15.6705 12.466 16.84 12.0144C17.8821 11.6207 18.0095 11.5976 18.38 11.7365C18.6 11.8176 18.9474 11.9102 19.1327 11.9449ZM26.9951 12.3271C27.3656 12.5239 29.1951 13.7513 29.4962 14.0061C29.9594 14.4113 30.0868 14.724 30.3647 16.0672C30.5152 16.8546 30.631 17.5146 30.6194 17.5262C30.6078 17.5378 30.1562 17.7346 29.612 17.9778C29.0678 18.2209 28.0141 18.7189 27.2614 19.101L25.8835 19.7842L24.5634 18.9389C22.317 17.503 21.7033 17.0167 21.7844 16.7272C21.8191 16.5883 21.8538 15.604 21.8538 14.5503V12.6281L22.5833 12.3618C22.977 12.2113 23.7181 11.9797 24.2276 11.8407L25.154 11.5976L25.895 11.8639C26.3003 12.0144 26.7982 12.2228 26.9951 12.3271ZM31.6963 18.8578C32.1479 19.182 32.5068 19.4599 32.5068 19.4715C32.5068 19.4831 32.4026 19.7263 32.2637 20.0042C32.0552 20.421 31.9974 20.4789 31.9047 20.3168C31.7426 20.0273 31.511 20.0736 31.2331 20.4673C31.0247 20.7684 30.9552 20.7916 30.7584 20.6642C30.5499 20.5484 30.492 20.5715 30.2604 20.8379C30.1099 21.0463 29.9015 21.1621 29.7046 21.1621C29.5078 21.1621 29.3341 21.2663 29.2067 21.4632C29.0562 21.7063 28.9636 21.7411 28.6741 21.6832C28.4193 21.6253 28.3383 21.6484 28.3383 21.7874C28.3383 21.8916 28.4309 21.9727 28.5583 21.9727C28.7551 21.9727 28.7783 22.1116 28.8478 23.5011C28.9288 25.3654 28.9288 25.1338 28.9057 26.917C28.8941 28.4223 28.813 28.8045 28.512 28.8045C28.2456 28.8045 28.1877 28.3066 28.2688 26.9518C28.3499 25.5854 28.3035 25.3307 27.9793 25.3307C27.7825 25.3307 27.7593 25.458 27.7362 26.6854C27.713 27.8086 27.6667 28.0518 27.5277 28.0518C27.3888 28.0518 27.3425 27.8086 27.3193 26.7202C27.2846 25.4696 27.1919 25.1222 26.9256 25.2843C26.8793 25.3191 26.833 25.8633 26.833 26.5002C26.833 27.716 26.8561 27.6581 26.2772 27.8318C26.0687 27.8897 26.3929 28.2255 26.6477 28.2255C26.7519 28.2255 26.833 28.2834 26.833 28.3529C26.833 28.4108 26.8909 28.4339 26.9488 28.3992C27.0182 28.3529 27.0414 28.2718 27.0067 28.2139C26.9719 28.156 27.0182 28.1444 27.1224 28.1908C27.273 28.2487 27.2846 28.2718 27.1572 28.3529C27.0414 28.4339 27.0414 28.4571 27.1572 28.4571C27.2267 28.4571 27.2961 28.5381 27.2961 28.6424C27.2961 28.735 27.3425 28.7929 27.4003 28.7466C27.4698 28.7118 27.5625 28.7813 27.6319 28.8855C27.7014 29.0013 27.7593 29.0476 27.7593 28.9897C27.7593 28.9318 27.8404 28.955 27.933 29.0361C28.072 29.1518 28.1067 29.1518 28.1067 29.0245C28.1183 28.9318 28.1762 28.9897 28.2572 29.1518C28.3614 29.3603 28.4888 29.4413 28.7436 29.4413C28.9404 29.4529 29.0794 29.4876 29.0678 29.534C29.0215 29.6382 29.4615 30.0782 29.612 30.0782C29.6815 30.0782 29.7278 30.1477 29.7278 30.2171C29.7278 30.3214 29.7741 30.3098 29.8436 30.194C29.9362 30.0435 29.9594 30.055 29.9594 30.2403C29.9594 30.4719 29.9594 30.4719 30.1447 30.2403C30.2373 30.1245 30.2952 30.0898 30.2489 30.1708C30.2026 30.2519 30.2026 30.414 30.2489 30.5182C30.3183 30.6919 30.3415 30.6803 30.4689 30.4372C30.5615 30.275 30.6541 30.2171 30.7005 30.2866C30.7931 30.4372 30.6657 30.773 30.5152 30.773C30.4573 30.773 30.4457 30.8193 30.4805 30.8887C30.5152 30.9466 30.5036 31.0045 30.4341 31.0045C30.3647 31.0045 30.3415 31.074 30.3762 31.1667C30.411 31.2593 30.3762 31.3635 30.2952 31.4214C30.2026 31.4677 30.1794 31.4561 30.2373 31.3751C30.3994 31.1088 30.1794 31.2477 29.7857 31.653C29.5309 31.9193 29.3109 32.0467 29.1951 32.0004C29.1025 31.9656 29.0446 31.9772 29.0794 32.0351C29.1141 32.0814 28.9404 32.2435 28.6857 32.3825C28.373 32.5562 28.2109 32.5909 28.153 32.4983C28.1183 32.4288 28.153 32.3246 28.2341 32.2667C28.3614 32.1856 28.3499 32.1625 28.1762 32.1625C28.0141 32.1625 27.9793 32.2204 28.0372 32.4404C28.0951 32.672 28.0488 32.7414 27.8519 32.8109C27.5509 32.9036 27.4814 32.8688 27.4467 32.6372C27.4119 32.3477 27.1919 32.2204 27.0414 32.3825C26.914 32.5214 26.9256 32.533 27.1109 32.4635C27.2961 32.4056 27.3077 32.4172 27.1919 32.5562C27.1109 32.6488 27.0761 32.7878 27.1224 32.8572C27.2382 33.0425 26.8445 33.4362 26.6361 33.3551C26.4972 33.2973 26.4972 33.2741 26.6245 33.193C26.7403 33.112 26.7519 33.0888 26.6245 33.0888C26.5435 33.0888 26.5087 33.0309 26.5435 32.973C26.5782 32.9036 26.5551 32.8572 26.474 32.8572C26.3814 32.8572 26.3929 32.7993 26.4972 32.6604C26.613 32.533 26.613 32.4983 26.5203 32.5562C26.4393 32.6025 26.3698 32.5793 26.3698 32.5214C26.3698 32.452 26.2887 32.3941 26.1961 32.3941C26.0803 32.3941 26.0224 32.5099 26.0224 32.753C26.0224 32.9846 25.9761 33.0772 25.8835 33.0193C25.8024 32.973 25.7908 32.9846 25.8371 33.0772C25.8835 33.1467 25.9761 33.1815 26.034 33.1467C26.0919 33.1004 26.1382 33.2046 26.1382 33.3551C26.1382 33.7257 25.7908 33.8762 25.594 33.5983C25.4782 33.4362 25.4782 33.3551 25.5824 33.2162C25.6866 33.0772 25.6634 33.0888 25.4898 33.2394C25.3624 33.3436 25.2003 33.4015 25.1424 33.3551C25.0845 33.2973 25.1308 33.3667 25.2466 33.5057C25.4898 33.7952 25.5013 33.8994 25.2698 33.8994C24.9455 33.8994 23.1276 33.0657 22.3633 32.5678L21.7844 32.1856L21.7728 30.1477C21.7612 28.9666 21.7033 28.0287 21.6338 27.8897C21.4601 27.5655 21.4601 23.1769 21.6338 23.0611C21.8886 22.9106 21.9696 23.339 21.9696 25.0412C21.9696 26.6854 21.9812 26.7897 22.1896 26.7897C22.317 26.7897 22.3865 26.7433 22.3633 26.697C22.3286 26.6507 22.3518 26.6044 22.4097 26.6044C22.4791 26.6044 22.5023 26.0023 22.4675 25.0064C22.4097 23.4664 22.5139 22.679 22.7686 22.8295C22.8265 22.8643 22.9076 23.6517 22.9539 24.5664C23.0349 26.0949 23.0581 26.2339 23.2318 26.1181C23.3939 26.0138 23.4286 25.7591 23.4518 24.4854C23.475 22.9106 23.5792 22.54 23.8918 22.9453C23.996 23.0958 24.0539 23.478 24.0539 24.0801C24.0539 24.8096 24.0887 24.9833 24.2276 24.9833C24.3202 24.9833 24.4129 24.9717 24.4129 24.9485C24.4245 24.937 24.4592 24.3233 24.5055 23.5938C24.5634 22.459 24.5981 22.2621 24.7834 22.2274C24.9571 22.1927 24.9803 22.32 24.9803 23.5822C24.9803 24.7517 25.0034 24.9833 25.154 24.9833C25.3624 24.9833 25.3276 25.1686 25.4319 23.5706C25.4782 22.8295 25.5477 22.1695 25.594 22.1232C25.7445 21.9842 25.9066 22.3432 25.9066 22.8295C25.9066 23.6285 26.0224 23.2001 26.0687 22.1927C26.0919 21.66 26.1266 21.0463 26.1266 20.8495C26.1382 20.5021 26.2077 20.4326 26.9835 20.0389C28.0025 19.5294 30.6773 18.2788 30.8047 18.2788C30.851 18.2673 31.2563 18.5336 31.6963 18.8578ZM28.0488 28.6887C28.0835 28.7581 28.0372 28.7697 27.9446 28.735C27.7362 28.6539 27.7014 28.5729 27.8635 28.5729C27.933 28.5729 28.0141 28.6192 28.0488 28.6887ZM35.2627 31.7109C35.1817 31.7688 35.1469 31.8151 35.2048 31.8151C35.3206 31.8151 34.6374 33.1467 34.2669 33.6678C33.9658 34.0731 33.6648 34.4204 33.1321 34.9994C32.9816 35.1615 32.8542 35.3352 32.8542 35.3815C32.8426 35.4279 32.75 35.5784 32.6226 35.7289C32.3679 36.0416 32.1363 35.9721 32.171 35.6015C32.2058 35.1152 32.171 35.0342 31.9626 35.1615C31.8121 35.2426 31.7542 35.4394 31.7426 35.9142C31.7079 36.9447 31.2331 37.2805 31.2331 36.2616C31.2331 35.9837 31.1868 35.7521 31.1173 35.7521C31.0594 35.7521 31.0015 35.6942 31.0015 35.6247C31.0015 35.5668 31.0594 35.5436 31.1173 35.5784C31.1868 35.6131 31.2331 35.59 31.2331 35.5321C31.2331 35.3815 31.1984 35.3815 30.9552 35.4742C30.8626 35.5089 30.8163 35.6131 30.851 35.7173C30.8973 35.8216 30.8742 35.8794 30.8163 35.8447C30.7584 35.7984 30.7236 36.111 30.7468 36.5742C30.7699 37.0837 30.7352 37.4427 30.6541 37.5469C30.411 37.8479 30.3068 37.6163 30.3068 36.7595V35.9373L30.851 35.3815C31.1521 35.0805 31.4647 34.8257 31.5342 34.8257C31.9742 34.8257 33.7921 32.9267 34.3016 31.9309C34.4174 31.7109 34.6722 31.3751 34.869 31.2014L35.2164 30.8656L35.3206 31.2361C35.3901 31.514 35.3785 31.6414 35.2627 31.7109ZM8.80392 32.1046C9.31341 32.9151 10.2398 34.0152 10.3208 33.9225C10.3671 33.8878 10.5177 33.992 10.6682 34.1657C10.8187 34.3394 10.9924 34.4783 11.0735 34.4783C11.1429 34.4783 11.2008 34.5362 11.2008 34.6173C11.2008 34.6868 11.2356 34.7099 11.2819 34.6752C11.3166 34.6289 11.4209 34.652 11.5135 34.7215C11.6988 34.8836 11.7219 36.6205 11.5366 36.7479C11.3282 36.8753 11.2124 36.6437 11.1893 36.0184C11.1661 35.5436 11.1314 35.4394 11.0156 35.5321C10.9114 35.6247 10.8882 35.59 10.9229 35.3815C10.9461 35.231 10.9461 35.1847 10.8998 35.2657C10.865 35.3352 10.7956 35.3815 10.7377 35.3468C10.6914 35.3121 10.6682 35.3815 10.7029 35.5089C10.7956 35.8679 10.5408 35.891 10.2282 35.5552C10.0545 35.3815 9.97343 35.2194 10.0429 35.1963C10.2282 35.1268 10.1703 34.9647 9.96185 34.9878C9.57973 35.011 7.83125 32.5909 7.70388 31.8614C7.6923 31.734 7.7502 31.5488 7.84283 31.4561C8.07442 31.2014 8.34074 31.3751 8.80392 32.1046ZM30.3415 32.9151C30.3762 33.2278 30.4341 33.7836 30.4805 34.131C30.5384 34.7215 30.5268 34.7794 30.2489 34.9763C29.9941 35.1615 29.9594 35.1615 29.9594 34.9994C29.9594 34.8952 30.0057 34.8373 30.052 34.872C30.1099 34.9068 30.1562 34.8605 30.1562 34.7678C30.1562 34.6752 30.0752 34.571 29.9941 34.5478C29.9015 34.5131 29.8668 34.5362 29.9015 34.6057C29.9478 34.6636 29.9246 34.791 29.8552 34.872C29.7857 34.9531 29.751 35.1036 29.7973 35.2078C29.8783 35.4394 29.6699 35.8331 29.3688 35.9952C29.1488 36.0995 29.1488 36.0995 29.253 35.8794C29.4383 35.5552 29.4152 35.451 29.1488 35.451C28.9404 35.451 28.8478 35.671 28.9057 36.03C28.9404 36.2268 28.7899 36.5395 28.6278 36.6089C28.3962 36.69 28.1762 35.891 28.373 35.6479C28.4772 35.5089 28.4772 35.4973 28.373 35.5668C28.2804 35.6131 28.2225 35.5784 28.2225 35.4742C28.2225 35.1963 28.0256 35.2542 27.9562 35.5436C27.933 35.6942 27.9098 36.0416 27.933 36.331C27.9562 36.8753 27.8404 37.1416 27.574 37.1416C27.4582 37.1416 27.4119 36.9911 27.4119 36.6668C27.4119 36.2616 27.3772 36.2037 27.2151 36.2616C27.0761 36.3079 27.0993 36.2616 27.273 36.1458C27.5393 35.9489 27.6088 35.7521 27.4003 35.7521C27.3425 35.7521 27.3193 35.8216 27.3656 35.891C27.4235 35.9952 27.3888 35.9837 27.2614 35.8794C27.1224 35.7752 27.0993 35.6826 27.1803 35.5784C27.2614 35.4857 27.2382 35.4394 27.1224 35.4394C27.0067 35.4394 26.9488 35.5552 26.9488 35.7405C26.9488 35.9026 26.9372 36.8753 26.9256 37.8943C26.8909 39.6543 26.8793 39.7469 26.6593 39.7469C26.4393 39.7469 26.4277 39.6775 26.4508 37.7785C26.4624 35.9026 26.4508 35.7984 26.2424 35.7984C26.1266 35.7984 26.0224 35.8563 26.0108 35.9258C25.9761 36.4353 25.9529 37.2111 25.9298 38.6816C25.9066 40.0943 25.8719 40.407 25.7329 40.4649C25.6287 40.4996 25.5245 40.4996 25.4898 40.4649C25.455 40.4417 25.4319 39.469 25.4203 38.3227C25.4087 37.1416 25.3508 36.25 25.2929 36.2963C25.2466 36.331 25.2234 36.4237 25.2582 36.5163C25.2929 36.6089 25.2582 36.6437 25.1424 36.5974C25.0034 36.551 24.9803 36.8753 24.9803 38.8669C24.9803 40.8701 24.9571 41.2059 24.8066 41.2754C24.7024 41.3102 24.5981 41.3102 24.5518 41.2754C24.5171 41.2407 24.4824 40.1638 24.4824 38.8901C24.4824 36.5974 24.4824 36.5742 24.7718 36.2384C24.9224 36.0531 25.1771 35.6131 25.3392 35.2542C25.5245 34.8141 25.6866 34.5941 25.8256 34.5941C26.0571 34.5941 29.4962 32.8572 29.9246 32.5099C30.0868 32.3825 30.2373 32.2899 30.2604 32.3014C30.272 32.3246 30.3068 32.5909 30.3415 32.9151ZM14.2925 33.2046C15.0683 33.6099 15.6821 33.9804 15.6589 34.0152C15.6357 34.0499 15.7052 34.0846 15.8094 34.0962C15.9136 34.1078 16.3305 34.2236 16.7242 34.3741C17.4421 34.6173 17.4421 34.6289 17.7548 35.3931C18.0558 36.1342 18.0558 36.2152 18.0442 38.4732C18.0442 39.7469 18.0327 40.8238 18.0327 40.8701C18.0327 40.928 17.9284 40.9628 17.7895 40.9628C17.5579 40.9628 17.5463 40.928 17.6042 38.948C17.6621 36.7479 17.6274 36.331 17.3726 36.331C17.28 36.331 17.2453 36.2731 17.28 36.2152C17.3263 36.1458 17.4074 36.1342 17.4768 36.1689C17.5463 36.2152 17.5811 36.1805 17.5463 36.0995C17.4884 35.9258 17.1989 35.7868 17.2337 35.9489C17.2453 35.9952 17.2337 36.0763 17.2221 36.1226C17.141 36.3774 17.1758 36.5163 17.3379 36.5858C17.4884 36.6553 17.4884 36.6668 17.3147 36.6668C17.1526 36.6784 17.1295 36.8869 17.1179 38.3806C17.1063 39.3185 17.0484 40.1406 16.9905 40.1985C16.9326 40.2564 16.8052 40.268 16.701 40.2217C16.5505 40.1638 16.5273 40.0596 16.5737 39.7122C16.6084 39.4806 16.6547 38.6006 16.6663 37.7785C16.6779 36.3658 16.6663 36.2731 16.4694 36.3079C16.2958 36.3426 16.2842 36.3195 16.3652 36.1921C16.5389 35.9721 16.6547 35.6131 16.5389 35.6942C16.481 35.7289 16.4 35.6594 16.3768 35.5552C16.3537 35.4394 16.3421 35.4973 16.3652 35.6826C16.3884 35.8679 16.3537 36.0763 16.2958 36.1574C16.2263 36.2384 16.1684 36.551 16.1568 36.8405C16.1568 37.1416 16.1105 37.4079 16.0526 37.4311C16.0063 37.4658 16.0179 37.6395 16.0757 37.8248C16.1452 38.01 16.18 38.4385 16.1568 38.7743C16.1336 39.2606 16.0757 39.4111 15.9252 39.4343C15.7399 39.469 15.7168 39.3764 15.7168 38.7164C15.7168 38.3111 15.7631 37.8364 15.8326 37.6742C15.9021 37.489 15.9021 37.3616 15.8326 37.3153C15.7747 37.2805 15.7399 36.9795 15.7747 36.6437C15.8094 36.1342 15.7978 36.0763 15.6705 36.2384C15.5894 36.3542 15.4852 36.4121 15.4505 36.3658C15.4041 36.331 15.3694 36.4353 15.3694 36.6089C15.3694 36.8521 15.3231 36.9216 15.1726 36.8869C15.0104 36.8521 14.9757 36.7479 14.9989 36.4121C15.022 36.0763 14.9873 35.9837 14.8368 35.9837C14.6862 35.9837 14.6746 36.0184 14.7789 36.1458C14.8715 36.2616 14.8831 36.331 14.7904 36.3889C14.721 36.4353 14.6862 36.4005 14.6978 36.3195C14.721 36.25 14.6631 36.1574 14.5936 36.1342C14.5125 36.0995 14.4431 36.1574 14.4431 36.2616C14.4431 36.3658 14.3967 36.4468 14.3388 36.4468C14.142 36.4468 13.8873 35.9837 13.9451 35.7405C13.9915 35.5668 13.9451 35.5205 13.7367 35.5205C13.482 35.5205 13.482 35.5321 13.6904 35.671C13.8525 35.7984 13.8641 35.8563 13.7483 35.9258C13.5515 36.0416 12.9146 35.3584 13.0072 35.1268C13.042 35.0342 13.0072 34.9299 12.9262 34.872C12.8335 34.8141 12.8104 34.8373 12.8798 34.9531C12.9262 35.0457 12.8683 35.011 12.7409 34.8836C12.5325 34.6752 12.5093 34.5362 12.5672 33.5173C12.6019 32.753 12.6598 32.3941 12.7525 32.4172C12.822 32.4404 13.5167 32.7878 14.2925 33.2046ZM26.3582 33.0078C26.3698 33.0657 26.3235 33.0657 26.254 33.0309C26.1961 32.9962 26.1382 32.8457 26.1498 32.7067C26.1498 32.4635 26.1614 32.4635 26.254 32.6835C26.3119 32.8109 26.3582 32.9615 26.3582 33.0078ZM12.6714 36.7132C12.6483 37.35 12.6251 37.4311 12.4167 37.4311C12.2198 37.4311 12.1851 37.35 12.1735 36.9679C12.1735 36.7132 12.1851 36.2731 12.2198 35.9952C12.2777 35.4857 12.2777 35.4857 12.4862 35.7289C12.6367 35.9258 12.683 36.1689 12.6714 36.7132ZM13.4588 37.3848C13.4588 37.9637 13.4241 38.1258 13.2851 38.1258C13.0883 38.1258 12.9956 37.5469 13.1114 36.9447C13.2388 36.2731 13.4588 36.5626 13.4588 37.3848ZM29.8436 37.489C29.8436 38.2648 29.7162 38.5659 29.4731 38.3227C29.3225 38.1722 29.3341 36.9332 29.4962 36.7247C29.7394 36.4468 29.8436 36.6668 29.8436 37.489ZM18.8895 37.0953C19.0516 37.1532 19.0748 37.4774 19.0748 39.5385V41.9007L18.8201 41.866C18.5653 41.8312 18.5653 41.8197 18.5769 39.5154C18.5885 38.2416 18.6 37.1648 18.6 37.1069C18.6116 37.0026 18.6579 37.0026 18.8895 37.0953ZM14.4431 37.9637C14.4431 38.5659 14.4199 38.6469 14.2115 38.6469C14.003 38.6469 13.9799 38.5659 13.9799 37.9753C13.9799 37.2458 14.0262 37.1184 14.2809 37.2227C14.3967 37.269 14.4431 37.489 14.4431 37.9637ZM23.9497 37.57C23.9844 39.0638 23.9497 42.3755 23.9034 42.4334C23.8571 42.4681 23.7529 42.4681 23.6486 42.4334C23.4981 42.3639 23.475 42.0165 23.475 39.9901C23.475 38.6932 23.5097 37.5469 23.5444 37.4427C23.6602 37.13 23.9381 37.2227 23.9497 37.57ZM28.8246 37.9174C28.8825 38.7164 28.8362 38.9017 28.5814 38.8553C28.3383 38.809 28.2456 37.5006 28.4772 37.3616C28.7436 37.1879 28.7783 37.2458 28.8246 37.9174ZM19.978 37.6279C20.1285 37.7785 20.1864 42.5028 20.0475 42.8618C20.0127 42.966 19.8738 43.0471 19.7464 43.0471C19.5264 43.0471 19.5148 42.9776 19.5843 40.2912C19.619 38.7859 19.6422 37.5353 19.6538 37.5121C19.6653 37.4427 19.8506 37.5006 19.978 37.6279ZM21.9928 41.7733C21.9581 45.0503 21.9117 46.0345 21.7959 46.1619C21.4138 46.5556 21.3791 46.2082 21.4486 42.3176C21.5296 37.8364 21.5528 37.4542 21.8307 37.5121C22.016 37.5469 22.0275 37.8943 21.9928 41.7733ZM22.9539 40.5112C22.9539 43.2208 22.9423 43.4523 22.757 43.4871C22.5602 43.5218 22.5486 43.325 22.5486 40.5807C22.5486 38.9711 22.5833 37.6048 22.6297 37.5585C22.9076 37.2805 22.9539 37.709 22.9539 40.5112ZM15.2189 37.7437C15.3462 37.9174 15.2768 39.1101 15.1378 39.1101C14.8831 39.1101 14.7673 38.7395 14.8483 38.1837C14.9294 37.5932 15.022 37.489 15.2189 37.7437ZM20.997 40.7659C20.997 43.0934 20.9622 43.9155 20.858 44.066C20.7538 44.2166 20.6727 44.2282 20.5801 44.1355C20.4759 44.0313 20.4643 43.1629 20.5338 40.8007C20.6033 37.9522 20.638 37.5932 20.8001 37.6279C20.9622 37.6627 20.9854 38.0216 20.997 40.7659ZM27.8751 38.4732C27.8751 39.1448 27.8519 39.2259 27.6435 39.2259C27.4351 39.2259 27.4119 39.1448 27.4119 38.4732C27.4119 37.8016 27.4351 37.7206 27.6435 37.7206C27.8519 37.7206 27.8751 37.8016 27.8751 38.4732Z" fill="white"/>
<path d="M27.4119 22.0653C27.4119 22.1695 27.493 22.3664 27.5856 22.4821C27.713 22.6443 27.7593 23.0264 27.7593 23.8485C27.7593 24.8675 27.7825 24.9833 27.9909 25.0991C28.2341 25.2265 28.2341 25.2033 28.2109 23.7211C28.1993 22.4937 28.1646 22.2274 28.0372 22.2853C27.9446 22.32 27.8519 22.2621 27.8056 22.1695C27.713 21.9032 27.4119 21.8221 27.4119 22.0653Z" fill="white"/>
<path d="M26.8329 23.999C26.8329 24.9022 26.8561 24.9833 27.0645 24.9833C27.273 24.9833 27.2961 24.9022 27.2961 24.3117C27.2961 23.5127 27.2151 23.1653 26.9951 23.0843C26.8677 23.038 26.8329 23.2116 26.8329 23.999Z" fill="white"/>
<path d="M25.9182 24.9717C25.9182 25.817 25.9645 26.3728 26.034 26.3728C26.1035 26.3728 26.1151 26.4307 26.0687 26.5118C26.0224 26.5928 26.034 26.6044 26.1151 26.5581C26.3003 26.4423 26.2424 23.6864 26.0572 23.6285C25.953 23.5938 25.9182 23.9296 25.9182 24.9717Z" fill="white"/>
<path d="M24.135 25.1801C23.9844 25.3191 24.0539 25.678 24.2276 25.678C24.3318 25.678 24.4013 25.5738 24.4013 25.3886C24.4013 25.1107 24.2855 25.018 24.135 25.1801Z" fill="white"/>
<path d="M25.0382 25.3191C25.0034 25.377 25.0266 25.458 25.0961 25.5044C25.154 25.5391 25.2119 25.4928 25.2119 25.4001C25.2119 25.1917 25.1424 25.157 25.0382 25.3191Z" fill="white"/>
<path d="M25.9529 27.2413C25.9066 27.3339 25.7908 27.4149 25.675 27.4149C25.4203 27.4149 25.2929 27.7044 25.4782 27.855C25.7793 28.075 25.9414 28.1444 25.8603 28.0055C25.8024 27.9129 25.8487 27.8434 25.9993 27.7971C26.2309 27.7392 26.3235 27.2992 26.1035 27.2992C26.0572 27.2992 26.0456 27.2413 26.0803 27.1834C26.1151 27.1139 26.1266 27.0676 26.0803 27.0676C26.0456 27.0676 25.9877 27.1486 25.9529 27.2413Z" fill="white"/>
<path d="M28.512 29.615C28.4773 29.6729 28.5583 29.754 28.6973 29.7887C28.8941 29.8582 28.9173 29.8929 28.7899 29.974C28.6857 30.0435 28.6741 30.0782 28.7667 30.0782C29.0099 30.0782 29.0215 29.8929 28.8015 29.6961C28.6741 29.5919 28.5467 29.5571 28.512 29.615Z" fill="white"/>
<path d="M28.4309 31.433C28.512 31.4677 28.6162 31.4561 28.6509 31.4214C28.6973 31.3867 28.6278 31.3519 28.5004 31.3635C28.373 31.3635 28.3383 31.3982 28.4309 31.433Z" fill="white"/>
<path d="M27.9909 31.7456C27.9909 31.8383 28.0372 31.9425 28.0951 31.9772C28.153 32.0235 28.1762 31.9425 28.1414 31.8151C28.072 31.5488 27.9909 31.514 27.9909 31.7456Z" fill="white"/>
<path d="M26.9487 31.8151C26.9487 31.873 27.0066 31.9309 27.0761 31.9309C27.134 31.9309 27.1572 31.873 27.1224 31.8151C27.0877 31.7456 27.0298 31.6993 26.995 31.6993C26.9719 31.6993 26.9487 31.7456 26.9487 31.8151Z" fill="white"/>
<path d="M25.0961 32.1856C25.0961 32.232 25.1424 32.2783 25.2003 32.2783C25.2698 32.2783 25.3392 32.232 25.374 32.1856C25.4087 32.1277 25.3624 32.0814 25.2698 32.0814C25.1771 32.0814 25.0961 32.1277 25.0961 32.1856Z" fill="white"/>
<path d="M26.0224 32.1046C26.0224 32.1856 26.3698 32.2551 26.4161 32.1856C26.4508 32.1393 26.3698 32.0814 26.2424 32.0814C26.1266 32.0698 26.0224 32.0814 26.0224 32.1046Z" fill="white"/>
<path d="M25.2119 32.452C25.2119 32.5099 25.2697 32.6488 25.3276 32.7414C25.3855 32.8341 25.4434 32.8572 25.4434 32.7993C25.4434 32.7299 25.3855 32.6025 25.3276 32.5099C25.2697 32.4172 25.2119 32.3825 25.2119 32.452Z" fill="white"/>
<path d="M27.1224 34.4784C26.9487 34.6636 26.9372 34.7447 27.0529 34.8605C27.1687 34.9647 27.1803 34.9531 27.1108 34.7794C27.0414 34.6057 27.0645 34.571 27.1919 34.6173C27.3077 34.6636 27.3656 34.6057 27.3656 34.4668C27.3656 34.2004 27.3772 34.2004 27.1224 34.4784Z" fill="white"/>
<path d="M28.014 34.8257C28.0256 35.011 28.0835 35.1731 28.1414 35.1731C28.2109 35.1731 28.2225 35.1384 28.1877 35.0921C28.1414 35.0573 28.1761 34.9415 28.2572 34.8489C28.3614 34.6984 28.3614 34.6868 28.2572 34.7563C28.1761 34.8026 28.1067 34.791 28.1067 34.7215C28.1067 34.6636 28.1761 34.5826 28.2572 34.5594C28.3383 34.5247 28.3267 34.4899 28.1993 34.4899C28.0604 34.4784 28.014 34.571 28.014 34.8257Z" fill="white"/>
<path d="M28.9172 34.8257C28.9172 34.8836 28.9751 34.9415 29.0446 34.9415C29.1025 34.9415 29.1257 34.8836 29.0909 34.8257C29.0562 34.7563 28.9983 34.7099 28.9636 34.7099C28.9404 34.7099 28.9172 34.7563 28.9172 34.8257Z" fill="white"/>
<path d="M26.0803 34.9415C26.0456 35.011 26.0919 35.0226 26.1845 34.9878C26.393 34.9068 26.4277 34.8257 26.2656 34.8257C26.1961 34.8257 26.1151 34.872 26.0803 34.9415Z" fill="white"/>
<path d="M29.2994 34.9994C29.2994 35.0921 29.3457 35.1384 29.4036 35.1036C29.4615 35.0689 29.4731 34.9878 29.4383 34.9299C29.3341 34.7794 29.2994 34.8026 29.2994 34.9994Z" fill="white"/>
<path d="M27.0066 35.1731C26.9719 35.231 27.0182 35.2889 27.1224 35.2889C27.2267 35.2889 27.273 35.231 27.2382 35.1731C27.2035 35.1036 27.1456 35.0573 27.1224 35.0573C27.0993 35.0573 27.0414 35.1036 27.0066 35.1731Z" fill="white"/>
<path d="M28.8594 35.1731C28.8246 35.231 28.8709 35.2889 28.9752 35.2889C29.0794 35.2889 29.1257 35.231 29.091 35.1731C29.0562 35.1036 28.9983 35.0573 28.9752 35.0573C28.952 35.0573 28.8941 35.1036 28.8594 35.1731Z" fill="white"/>
<path d="M26.0224 35.3005C26.0224 35.3468 26.0919 35.4163 26.1729 35.4394C26.2424 35.4742 26.2077 35.5089 26.0803 35.5205C25.8719 35.5321 25.8603 35.5321 26.0571 35.6479C26.3003 35.7984 26.4856 35.6942 26.4856 35.4047C26.4856 35.2542 26.4045 35.1963 26.254 35.2078C26.1266 35.2194 26.0224 35.2542 26.0224 35.3005Z" fill="white"/>
<path d="M14.5588 34.872C14.5588 34.8952 14.6399 34.9763 14.7325 35.0573C14.8367 35.1384 14.9062 35.15 14.9062 35.0805C14.9062 35.0226 14.8252 34.9415 14.7325 34.8952C14.6399 34.8605 14.5588 34.8489 14.5588 34.872Z" fill="white"/>
<path d="M14.7326 35.4047C14.7673 35.4626 14.8252 35.5205 14.8599 35.5205C14.8831 35.5205 14.9063 35.4626 14.9063 35.4047C14.9063 35.3352 14.8484 35.2889 14.7789 35.2889C14.721 35.2889 14.6978 35.3352 14.7326 35.4047Z" fill="white"/>
<path d="M15.4157 35.4279C15.381 35.4742 15.4389 35.5205 15.5315 35.5205C15.6241 35.5205 15.7283 35.4742 15.7631 35.4279C15.7978 35.37 15.7399 35.3236 15.6473 35.3236C15.5547 35.3236 15.4504 35.37 15.4157 35.4279Z" fill="white"/>
<path d="M13.2272 21.1621C13.1114 21.2895 12.9841 21.3705 12.9493 21.3358C12.7756 21.2316 12.6714 24.8791 12.8451 25.0412C13.0883 25.2844 13.1693 24.8559 13.1693 23.2464C13.1693 21.7527 13.1925 21.5211 13.3662 21.4632C13.4704 21.4169 13.6094 21.44 13.6673 21.4979C13.7252 21.5558 13.7599 22.3895 13.7599 23.3622C13.7367 24.9949 13.7483 25.1107 13.9452 25.0759C14.1304 25.0412 14.1536 24.8791 14.1767 23.7096C14.2231 21.9727 14.2578 21.8221 14.6168 21.8916C14.941 21.9495 14.9873 21.8337 14.7326 21.6253C14.5936 21.5095 14.5125 21.5095 14.4199 21.6021C14.142 21.88 13.7599 21.6948 13.702 21.2547C13.6673 20.9884 13.4241 20.9421 13.2272 21.1621Z" fill="white"/>
<path d="M15.3694 22.2621C15.2884 22.3663 15.1494 22.4242 15.0799 22.3895C14.8947 22.32 14.7905 22.9222 14.7905 24.138C14.7905 25.018 14.8136 25.0991 15.0221 25.0991C15.2305 25.0991 15.2536 25.0064 15.2768 23.8485C15.3115 22.6443 15.3231 22.6095 15.5779 22.6211C15.8673 22.6327 15.8905 22.5632 15.6821 22.2737C15.5431 22.0884 15.52 22.0769 15.3694 22.2621Z" fill="white"/>
<path d="M15.8326 24.3233C15.8326 24.9022 15.8557 24.9949 16.041 24.9601C16.1915 24.937 16.2494 24.7864 16.2726 24.2654C16.3073 23.6632 16.2842 23.6053 16.0642 23.6285C15.8557 23.6401 15.8326 23.7211 15.8326 24.3233Z" fill="white"/>
<path d="M16.9442 25.2843C16.9094 25.3886 16.8747 25.5623 16.8747 25.6896C16.8747 25.8865 16.9094 25.8981 17.1063 25.7938C17.3726 25.6549 17.4305 25.0991 17.1758 25.0991C17.0831 25.0991 16.9789 25.1801 16.9442 25.2843Z" fill="white"/>
<path d="M15.8326 25.7938C15.8326 26.3496 15.8442 26.3728 16.0642 26.2339C16.5042 25.956 16.4926 25.2149 16.0526 25.2149C15.8673 25.2149 15.8326 25.2959 15.8326 25.7938Z" fill="white"/>
<path d="M15.4852 32.5099C15.4852 32.5678 15.5431 32.6257 15.6125 32.6257C15.6704 32.6257 15.6936 32.5678 15.6589 32.5099C15.6241 32.4404 15.5662 32.3941 15.5315 32.3941C15.5083 32.3941 15.4852 32.4404 15.4852 32.5099Z" fill="white"/>
<path d="M18.0906 32.8457C18.0558 32.9036 18.0674 32.9846 18.1253 33.0194C18.1832 33.0541 18.2295 33.0078 18.2295 32.9151C18.2295 32.7183 18.1948 32.6951 18.0906 32.8457Z" fill="white"/>
<path d="M16.3536 33.0888C16.3884 33.1467 16.481 33.2046 16.5389 33.2046C16.6084 33.2046 16.6199 33.1467 16.5852 33.0888C16.5505 33.0194 16.4578 32.973 16.3999 32.973C16.3305 32.973 16.3189 33.0194 16.3536 33.0888Z" fill="white"/>
<path d="M17.0484 33.4362C17.0832 33.4941 17.1411 33.552 17.1758 33.552C17.199 33.552 17.2221 33.4941 17.2221 33.4362C17.2221 33.3667 17.1642 33.3204 17.0947 33.3204C17.0368 33.3204 17.0137 33.3667 17.0484 33.4362Z" fill="white"/>
</svg>
